<mxfile host="app.diagrams.net" agent="Mozilla/5.0 (Windows NT 10.0; Win64; x64) AppleWebKit/537.36 (KHTML, like Gecko) Chrome/130.0.0.0 Safari/537.36" version="24.7.17">
  <diagram id="Ht1M8jgEwFfnCIfOTk4-" name="Page-1">
    <mxGraphModel dx="2193" dy="923" grid="0" gridSize="10" guides="1" tooltips="1" connect="1" arrows="1" fold="1" page="0" pageScale="1" pageWidth="1169" pageHeight="827" math="0" shadow="0">
      <root>
        <mxCell id="0" />
        <mxCell id="1" parent="0" />
        <mxCell id="Jvc2HoZa6T3WCqrvZS17-2" value="" style="rounded=0;whiteSpace=wrap;html=1;" vertex="1" parent="1">
          <mxGeometry x="-190" y="6" width="219" height="552" as="geometry" />
        </mxCell>
        <mxCell id="Jvc2HoZa6T3WCqrvZS17-3" value="" style="rounded=0;whiteSpace=wrap;html=1;dashed=1;align=left;" vertex="1" parent="1">
          <mxGeometry x="-182" y="209" width="195" height="154" as="geometry" />
        </mxCell>
        <mxCell id="Jvc2HoZa6T3WCqrvZS17-4" value="Postgres&lt;div&gt;&lt;br&gt;&lt;/div&gt;&lt;div&gt;&lt;b&gt;Database: DVD_Rental&lt;/b&gt;&lt;/div&gt;" style="image;aspect=fixed;html=1;points=[];align=center;fontSize=12;image=img/lib/azure2/databases/Azure_Database_PostgreSQL_Server.svg;" vertex="1" parent="1">
          <mxGeometry x="-95" y="239" width="48" height="64" as="geometry" />
        </mxCell>
        <mxCell id="Jvc2HoZa6T3WCqrvZS17-5" value="Application/Data Source" style="text;html=1;align=center;verticalAlign=middle;whiteSpace=wrap;rounded=0;" vertex="1" parent="1">
          <mxGeometry x="-186" y="209" width="151" height="30" as="geometry" />
        </mxCell>
        <mxCell id="Jvc2HoZa6T3WCqrvZS17-6" value="&lt;font style=&quot;font-size: 36px;&quot;&gt;&lt;b&gt;Source&lt;/b&gt;&lt;/font&gt;" style="text;html=1;align=center;verticalAlign=middle;whiteSpace=wrap;rounded=0;" vertex="1" parent="1">
          <mxGeometry x="-138" y="15" width="94" height="47" as="geometry" />
        </mxCell>
        <mxCell id="Jvc2HoZa6T3WCqrvZS17-8" value="" style="rounded=0;whiteSpace=wrap;html=1;dashed=1;align=left;" vertex="1" parent="1">
          <mxGeometry x="-180" y="384" width="195" height="154" as="geometry" />
        </mxCell>
        <mxCell id="Jvc2HoZa6T3WCqrvZS17-10" value="Infrastructure" style="text;html=1;align=center;verticalAlign=middle;whiteSpace=wrap;rounded=0;" vertex="1" parent="1">
          <mxGeometry x="-184" y="384" width="97" height="30" as="geometry" />
        </mxCell>
        <mxCell id="Jvc2HoZa6T3WCqrvZS17-11" value="RDS" style="outlineConnect=0;dashed=0;verticalLabelPosition=bottom;verticalAlign=top;align=center;html=1;shape=mxgraph.aws3.rds;fillColor=#2E73B8;gradientColor=none;" vertex="1" parent="1">
          <mxGeometry x="-102.5" y="423" width="63" height="76" as="geometry" />
        </mxCell>
      </root>
    </mxGraphModel>
  </diagram>
</mxfile>
